<svg width="96" height="45" viewBox="0 0 96 45" fill="none" xmlns="http://www.w3.org/2000/svg">
<path d="M-1.12653e-05 44.8L19.968 0H30.208L50.24 44.8H39.36L22.976 5.248H27.072L10.624 44.8H-1.12653e-05ZM9.98399 35.2L12.736 27.328H35.776L38.592 35.2H9.98399ZM54.888 44.8V0H76.776C82.408 0 86.632 1.06667 89.448 3.2C92.3067 5.33333 93.736 8.14934 93.736 11.648C93.736 13.9947 93.16 16.0427 92.008 17.792C90.856 19.4987 89.2773 20.8213 87.272 21.76C85.2667 22.6987 82.9627 23.168 80.36 23.168L81.576 20.544C84.392 20.544 86.888 21.0133 89.064 21.952C91.24 22.848 92.9253 24.192 94.12 25.984C95.3573 27.776 95.976 29.9733 95.976 32.576C95.976 36.416 94.4613 39.424 91.432 41.6C88.4027 43.7333 83.944 44.8 78.056 44.8H54.888ZM65.192 36.992H77.288C79.976 36.992 82.0027 36.5653 83.368 35.712C84.776 34.816 85.48 33.408 85.48 31.488C85.48 29.6107 84.776 28.224 83.368 27.328C82.0027 26.3893 79.976 25.92 77.288 25.92H64.424V18.368H75.496C78.0133 18.368 79.9333 17.9413 81.256 17.088C82.6213 16.192 83.304 14.848 83.304 13.056C83.304 11.3067 82.6213 10.0053 81.256 9.152C79.9333 8.256 78.0133 7.808 75.496 7.808H65.192V36.992Z" fill="#FF4D5A"/>
</svg>
